<?xml version="1.0" ?><!DOCTYPE svg  PUBLIC '-//W3C//DTD SVG 1.1//EN'  'http://www.w3.org/Graphics/SVG/1.1/DTD/svg11.dtd'><svg enable-background="new 0 0 512 512" height="512px" id="chandelier_1_" version="1.1" viewBox="0 0 512 512" width="512px" xml:space="preserve" xmlns="http://www.w3.org/2000/svg" xmlns:xlink="http://www.w3.org/1999/xlink"><path d="M447.279,247.464h-80.108c-4.654,0-8.442,3.788-8.442,8.443v41.181c0,25.29,19.922,46.014,44.896,47.305  v37.835c-2.384,37.765-33.848,67.763-72.202,67.763c-39.901,0-72.363-32.463-72.363-72.364h-0.006v-33.223  c32.134-1.134,57.931-27.611,57.931-60.017v-53.851c0-5.033-4.095-9.128-9.128-9.128h-48.803v-83.029  c9.547-1.708,16.822-10.054,16.822-20.085s-7.275-18.377-16.822-20.085V71.838h7.856c3.154,0,5.854-2.253,6.42-5.357l5.092-28.001  c0.346-1.909-0.169-3.858-1.412-5.348c-1.244-1.489-3.069-2.343-5.009-2.343h-31.969c-1.94,0-3.766,0.854-5.009,2.344  c-1.244,1.49-1.757,3.439-1.411,5.349l5.091,27.998c0.563,3.105,3.263,5.36,6.419,5.36h6.731v26.372  c-9.547,1.708-16.822,10.054-16.822,20.085s7.275,18.377,16.822,20.085v83.029h-48.792c-5.033,0-9.128,4.095-9.128,9.128v53.851  c0,32.402,25.791,58.877,57.919,60.016v33.455c-0.126,39.795-32.534,72.133-72.358,72.133c-39.901,0-72.363-32.463-72.363-72.364  v-33.2c25.551-0.656,46.139-21.631,46.139-47.338v-41.181c0-4.655-3.787-8.443-8.442-8.443H64.721c-4.655,0-8.443,3.788-8.443,8.443  v41.181c0,24.868,19.266,45.307,43.654,47.21v38.229h0.166c2.542,41.597,37.173,74.664,79.397,74.664  c32.093,0,59.789-19.11,72.358-46.54v30.055c-9.547,1.708-16.822,10.055-16.822,20.085c0,11.261,9.161,20.422,20.422,20.422  s20.422-9.161,20.422-20.422c0-10.03-7.275-18.377-16.822-20.085v-30.081c12.563,27.443,40.267,46.566,72.369,46.566  c42.225,0,76.856-33.067,79.397-74.664h0.004v-0.052c0.098-1.605,0.162-3.219,0.162-4.849h-0.162v-33.233  c24.976-1.291,44.897-22.014,44.897-47.305v-41.181C455.722,251.252,451.934,247.464,447.279,247.464z M103.648,337.258  c-22.149,0-40.169-18.02-40.169-40.17v-41.181c0-0.686,0.557-1.243,1.243-1.243h80.108c0.685,0,1.242,0.558,1.242,1.243v41.181  c0,22.15-18.02,40.17-40.169,40.17H103.648z M245.687,64.638l-4.846-26.649h30.352l-4.845,26.649H245.687z M242.231,118.294  c0-7.291,5.932-13.222,13.223-13.222c7.29,0,13.222,5.931,13.222,13.222s-5.932,13.222-13.222,13.222  C248.164,131.517,242.231,125.585,242.231,118.294z M268.676,460.79c0,7.29-5.932,13.222-13.222,13.222  c-7.291,0-13.223-5.932-13.223-13.222s5.932-13.222,13.223-13.222C262.744,447.568,268.676,453.5,268.676,460.79z M256.913,337.258  h-2.907c-29.154,0-52.871-23.718-52.871-52.871v-53.851c0-1.063,0.865-1.928,1.928-1.928h104.794c1.063,0,1.928,0.865,1.928,1.928  v53.851C309.784,313.54,286.066,337.258,256.913,337.258z M448.521,297.088c0,22.15-18.02,40.17-40.17,40.17h-2.253  c-22.149,0-40.17-18.02-40.17-40.17v-41.181c0-0.686,0.558-1.243,1.242-1.243h80.108c0.685,0,1.242,0.558,1.242,1.243V297.088z" id="chandelier"/></svg>