<?xml version="1.0" ?><!DOCTYPE svg  PUBLIC '-//W3C//DTD SVG 1.1//EN'  'http://www.w3.org/Graphics/SVG/1.1/DTD/svg11.dtd'><svg enable-background="new 0 0 512 512" height="512px" id="home_x5F_theater_1_" version="1.1" viewBox="0 0 512 512" width="512px" xml:space="preserve" xmlns="http://www.w3.org/2000/svg" xmlns:xlink="http://www.w3.org/1999/xlink"><g id="home_x5F_theater"><path d="M64.77,393.74h382.46v-96.942H64.77V393.74z M71.97,303.998H440.03v82.542H71.97V303.998z"/><path d="M472.295,271.476V163.835c0-7.444-6.057-13.5-13.5-13.5h-30.33c-7.443,0-13.5,6.056-13.5,13.5v107.641H290.649v-19.564   h84.813c5.329,0,9.664-4.336,9.664-9.664V102.602c0-5.328-4.335-9.664-9.664-9.664H134.635c-5.329,0-9.665,4.336-9.665,9.664   v139.646c0,5.328,4.335,9.664,9.665,9.664h84.813v19.564H96.777V163.835c0-7.444-6.056-13.5-13.5-13.5H52.948   c-7.444,0-13.5,6.056-13.5,13.5v107.641v7.2v125.795c0,8.046,6.545,14.592,14.591,14.592h403.921   c8.045,0,14.591-6.546,14.591-14.592V271.476H472.295z M422.166,163.835c0-3.475,2.825-6.301,6.299-6.301h30.33   c3.474,0,6.3,2.826,6.3,6.301v107.641h-42.929V163.835z M134.635,244.711c-1.359,0-2.464-1.105-2.464-2.464V102.602   c0-1.358,1.105-2.464,2.464-2.464h240.827c1.358,0,2.464,1.105,2.464,2.464v139.646c0,1.358-1.105,2.464-2.464,2.464h-84.813   h-71.202H134.635z M283.449,251.911v19.564h-56.802v-19.564H283.449z M46.648,163.835c0-3.475,2.826-6.301,6.3-6.301h30.329   c3.474,0,6.3,2.826,6.3,6.301v107.641H46.648V163.835z M465.352,404.471c0,4.076-3.315,7.391-7.391,7.391H54.04   c-4.076,0-7.392-3.314-7.392-7.391V278.676h50.129h122.67h71.202h124.315h50.387V404.471z"/><path d="M68.37,172.944c-8.705,0-15.787,7.081-15.787,15.786s7.082,15.786,15.787,15.786c8.705,0,15.786-7.081,15.786-15.786   S77.075,172.944,68.37,172.944z M68.37,197.316c-4.734,0-8.586-3.852-8.586-8.586s3.852-8.586,8.586-8.586s8.586,3.852,8.586,8.586   S73.104,197.316,68.37,197.316z"/><path d="M68.37,224.494c-8.705,0-15.787,7.081-15.787,15.786c0,8.704,7.082,15.786,15.787,15.786   c8.705,0,15.786-7.082,15.786-15.786C84.156,231.575,77.075,224.494,68.37,224.494z M68.37,248.866   c-4.734,0-8.586-3.852-8.586-8.586s3.852-8.587,8.586-8.587s8.586,3.853,8.586,8.587S73.104,248.866,68.37,248.866z"/><path d="M443.63,172.944c-8.704,0-15.786,7.081-15.786,15.786s7.082,15.786,15.786,15.786c8.705,0,15.786-7.081,15.786-15.786   S452.335,172.944,443.63,172.944z M443.63,197.316c-4.734,0-8.586-3.852-8.586-8.586s3.852-8.586,8.586-8.586   s8.587,3.852,8.587,8.586S448.364,197.316,443.63,197.316z"/><path d="M443.63,224.494c-8.704,0-15.786,7.081-15.786,15.786c0,8.704,7.082,15.786,15.786,15.786   c8.705,0,15.786-7.082,15.786-15.786C459.416,231.575,452.335,224.494,443.63,224.494z M443.63,248.866   c-4.734,0-8.586-3.852-8.586-8.586s3.852-8.587,8.586-8.587s8.587,3.853,8.587,8.587S448.364,248.866,443.63,248.866z"/></g></svg>